<svg xmlns="http://www.w3.org/2000/svg" xmlns:xlink="http://www.w3.org/1999/xlink" viewBox="0 0 168.1671 198.80884">
  <defs>
    <clipPath id="clip-path">
      <path d="M13.76868,126.66439,11.11245,179.4858a3.13791,3.13791,0,0,0,1.24346,2.6621l14.142,10.67489a3.1304,3.1304,0,0,0,1.27074.5716c3.70043.74345,20.83829,4.18667,21.32326,4.2855.48521.09889,26.2994,4.17088,31.85278,5.04663a3.12976,3.12976,0,0,0,1.97845-.33981l3.85125-2.08241a3.13813,3.13813,0,0,0,.90909-.74062l.31516-.37476a3.14,3.14,0,0,0,.46917-3.28662l-.01419-.03219a3.1297,3.1297,0,0,1-.26589-1.2641V187.2898a3.13792,3.13792,0,0,1,3.22741-3.13664l23.52551.67125c5.49368.15675,11.11161.82233,16.52528-.41672a3.13894,3.13894,0,0,1,.7-.08173h18.12289a3.13791,3.13791,0,0,0,2.21884-.91907l8.41743-8.41742a3.13742,3.13742,0,0,0,.39284-.47942l10.04691-15.08514a3.13591,3.13591,0,0,0-.10364-3.62519c-1.38762-1.84344-3.3707-4.49324-3.47478-4.71816-.16089-.34772-17.4055-11.35856-21.24284-12.86531s-17.04028-6.24366-17.50893-6.42508c-.42189-.16332-93.36969-6.78061-111.90986-8.09922A3.13758,3.13758,0,0,0,13.76868,126.66439Z" fill="none"/>
    </clipPath>
  </defs>
  <g id="Layer_2" data-name="Layer 2">
    <g id="Layer_1-2" data-name="Layer 1">
      <g>
        <text transform="translate(71.72583 129.93683) scale(0.95843 1)" font-size="19.47771" fill="#fffdfd" font-family="Poppins-ExtraBold, Poppins ExtraBold" font-weight="800" letter-spacing="0.03999em">On</text>
        <g clip-path="url(#clip-path)">
          <image width="1735" height="843" transform="translate(16.98345 128.57644) scale(0.08331)" xlink:href="Asset%2021.png"/>
        </g>
        <g>
          <g>
            <path d="M23.17455.25971h3.89876V26.4356H21.42967V6.05187L16.89991,7.16574,15.71178,2.48746Z" fill="#fff"/>
            <path d="M54.75226,18.71273a13.22331,13.22331,0,0,1-2.35761,4.27,10.98894,10.98894,0,0,1-3.65694,2.85876,10.67692,10.67692,0,0,1-4.73388,1.03962,10.83262,10.83262,0,0,1-4.73425-1.021,10.58464,10.58464,0,0,1-3.63828-2.84048,13.17611,13.17611,0,0,1-2.32067-4.251,16.51018,16.51018,0,0,1-.81684-5.291,16.40131,16.40131,0,0,1,.8355-5.291A13.18905,13.18905,0,0,1,35.6869,3.89837a10.98726,10.98726,0,0,1,3.65694-2.85875A10.67268,10.67268,0,0,1,44.07809,0,10.83692,10.83692,0,0,1,48.812,1.021a10.6115,10.6115,0,0,1,3.63866,2.84048A13.15711,13.15711,0,0,1,54.77092,8.1311a16.58369,16.58369,0,0,1,.81684,5.27235A16.34531,16.34531,0,0,1,54.75226,18.71273ZM49.31312,10.1734A8.86305,8.86305,0,0,0,48.16192,7.537a5.62873,5.62873,0,0,0-1.80048-1.74488,4.74443,4.74443,0,0,0-4.69693-.01866,5.56544,5.56544,0,0,0-1.78221,1.708,8.28924,8.28924,0,0,0-1.13253,2.6177,13.30445,13.30445,0,0,0-.38957,3.30431,12.70119,12.70119,0,0,0,.40823,3.3043,8.83945,8.83945,0,0,0,1.15119,2.63636A5.61325,5.61325,0,0,0,41.7201,21.089a4.74445,4.74445,0,0,0,4.69694.01866,5.50911,5.50911,0,0,0,1.7822-1.72661,8.5611,8.5611,0,0,0,1.13254-2.61732,13.0844,13.0844,0,0,0,.38957-3.286A12.738,12.738,0,0,0,49.31312,10.1734Z" fill="#fff"/>
            <path d="M77.56748,5.60632V11.213H89.96824v5.16077H77.56748V26.4356h-5.7179V.44555H91.63925V5.60632Z" fill="#fff"/>
            <path d="M107.30738,12.06679a5.81394,5.81394,0,0,0-4.43684,1.708q-1.61541,1.70795-1.615,5.30928V26.4356H95.61188V6.53474h5.64363v4.00995a8.27721,8.27721,0,0,1,2.33895-3.26737,5.69353,5.69353,0,0,1,4.01-1.11388v5.90335Z" fill="#fff"/>
            <path d="M129.67743,17.74737q-.01942.2976-.056.70564h-13.849a4.753,4.753,0,0,0,1.68929,2.91436,5.05712,5.05712,0,0,0,3.17483.984,6.29315,6.29315,0,0,0,2.52478-.48249,8.59236,8.59236,0,0,0,2.30163-1.55943l3.23043,2.85876a10.01241,10.01241,0,0,1-3.41588,2.7289,10.59254,10.59254,0,0,1-4.71522.984,11.34636,11.34636,0,0,1-4.14019-.74258,9.57668,9.57668,0,0,1-3.30431-2.11618,9.78823,9.78823,0,0,1-2.17215-3.24909,10.77555,10.77555,0,0,1-.77952-4.17674V16.5223a11.13538,11.13538,0,0,1,.72392-4.01A10.19665,10.19665,0,0,1,112.9137,9.208a9.43741,9.43741,0,0,1,7.09148-3.0446,9.69508,9.69508,0,0,1,4.307.89111,8.7649,8.7649,0,0,1,3.02593,2.39454,9.967,9.967,0,0,1,1.7822,3.45321,14.28833,14.28833,0,0,1,.57541,4.06555v.07426Q129.69571,17.4511,129.67743,17.74737Zm-6.81311-5.88469a3.70016,3.70016,0,0,0-2.85914-1.16947,3.78964,3.78964,0,0,0-2.87742,1.15081,5.77416,5.77416,0,0,0-1.42956,3.08153h8.50239A5.49668,5.49668,0,0,0,122.86432,11.86268Z" fill="#fff"/>
            <path d="M152.43705,17.74737q-.01942.2976-.056.70564h-13.849a4.753,4.753,0,0,0,1.68929,2.91436,5.0571,5.0571,0,0,0,3.17483.984,6.29315,6.29315,0,0,0,2.52478-.48249,8.59251,8.59251,0,0,0,2.30163-1.55943l3.23043,2.85876a10.01235,10.01235,0,0,1-3.41589,2.7289,10.5925,10.5925,0,0,1-4.71521.984,11.34636,11.34636,0,0,1-4.14019-.74258,9.57668,9.57668,0,0,1-3.30431-2.11618,9.78823,9.78823,0,0,1-2.17215-3.24909,10.77555,10.77555,0,0,1-.77952-4.17674V16.5223a11.13538,11.13538,0,0,1,.72392-4.01,10.19665,10.19665,0,0,1,2.02364-3.3043,9.43741,9.43741,0,0,1,7.09148-3.0446,9.69508,9.69508,0,0,1,4.307.89111,8.7649,8.7649,0,0,1,3.02593,2.39454,9.96714,9.96714,0,0,1,1.7822,3.45321,14.28833,14.28833,0,0,1,.57541,4.06555v.07426Q152.45533,17.4511,152.43705,17.74737Zm-6.81311-5.88469a3.70018,3.70018,0,0,0-2.85914-1.16947,3.78964,3.78964,0,0,0-2.87742,1.15081,5.77416,5.77416,0,0,0-1.42956,3.08153h8.50239A5.49668,5.49668,0,0,0,145.62394,11.86268Z" fill="#fff"/>
          </g>
          <g>
            <path d="M52.12113,51.95317A7.05072,7.05072,0,0,1,50.166,54.478a8.79576,8.79576,0,0,1-2.99356,1.55942,13.00454,13.00454,0,0,1-3.85534.53847,17.21678,17.21678,0,0,1-5.82948-1.021,15.42171,15.42171,0,0,1-5.19808-3.13751l3.37894-4.04689a16.95913,16.95913,0,0,0,3.65694,2.302,9.77493,9.77493,0,0,0,4.10287.85378,4.99552,4.99552,0,0,0,2.76622-.64967,2.04578,2.04578,0,0,0,.98364-1.80086V49.0015a2.25152,2.25152,0,0,0-.2045-.98364,2.0763,2.0763,0,0,0-.78218-.79857,8.24053,8.24053,0,0,0-1.60056-.74258q-1.02418-.37072-2.66149-.77952a32.32073,32.32073,0,0,1-3.57431-1.07694,10.05586,10.05586,0,0,1-2.71747-1.46651A5.925,5.925,0,0,1,33.90651,40.982a7.5426,7.5426,0,0,1-.61425-3.23043v-.07426a7.53256,7.53256,0,0,1,.66375-3.21177,7.31119,7.31119,0,0,1,1.86255-2.4688A8.3768,8.3768,0,0,1,38.68227,30.4a11.50735,11.50735,0,0,1,3.66951-.55674,15.55353,15.55353,0,0,1,5.25368.85378A15.24867,15.24867,0,0,1,52.005,33.14752l-2.97033,4.307a18.911,18.911,0,0,0-3.41551-1.87512,8.73249,8.73249,0,0,0-3.34162-.6866,4.04517,4.04517,0,0,0-2.50651.64966,1.9742,1.9742,0,0,0-.83512,1.615v.07425a2.33492,2.33492,0,0,0,.24182,1.09522,2.18726,2.18726,0,0,0,.87472.8355,8.22875,8.22875,0,0,0,1.73117.70565q1.09846.33416,2.77384.77952a26.75136,26.75136,0,0,1,3.51794,1.16947,9.84137,9.84137,0,0,1,2.6059,1.55943,5.95253,5.95253,0,0,1,1.60055,2.13483,7.25145,7.25145,0,0,1,.54,2.9334V48.519A8.04454,8.04454,0,0,1,52.12113,51.95317Z" fill="#fff"/>
            <path d="M77.34537,50.69078a10.06989,10.06989,0,0,1-2.005,3.23043A8.1799,8.1799,0,0,1,72.463,55.90752a8.93757,8.93757,0,0,1-3.41588.66833,7.13236,7.13236,0,0,1-3.73158-.88425,9.92766,9.92766,0,0,1-2.4688-2.06286v8.51649H57.20307V36.3037h5.64364v2.834a8.91878,8.91878,0,0,1,2.50612-2.30277,6.93894,6.93894,0,0,1,3.69426-.90253,8.84456,8.84456,0,0,1,3.37856.66833A8.36273,8.36273,0,0,1,75.32173,38.587a9.9113,9.9113,0,0,1,2.02364,3.23,11.8481,11.8481,0,0,1,.76124,4.39991v.07426A11.8418,11.8418,0,0,1,77.34537,50.69078ZM72.463,46.217a6.3225,6.3225,0,0,0-.38995-2.26127,5.39294,5.39294,0,0,0-1.05827-1.75668A4.67507,4.67507,0,0,0,69.474,41.07756a4.5443,4.5443,0,0,0-5.27234,1.12149A5.58083,5.58083,0,0,0,63.162,43.95573a6.3308,6.3308,0,0,0-.38957,2.26127v.07426a6.33644,6.33644,0,0,0,.38957,2.262A5.58956,5.58956,0,0,0,64.20164,50.31,4.60449,4.60449,0,0,0,69.474,51.43108,4.6796,4.6796,0,0,0,71.01475,50.31,5.43918,5.43918,0,0,0,72.073,48.57156a6.284,6.284,0,0,0,.38995-2.2803Z" fill="#fff"/>
            <path d="M82.3759,34.11288V29.10063h5.94066v5.01225Zm.14851,22.09168V36.3037H88.168V56.20456Z" fill="#fff"/>
            <path d="M106.06355,56.20456V45.13016a4.46593,4.46593,0,0,0-.8911-3.01832,3.17722,3.17722,0,0,0-2.52478-1.01867,3.35163,3.35163,0,0,0-2.58038,1.01867,4.28744,4.28744,0,0,0-.9467,3.01832v11.0744H93.477V36.3037h5.64364v2.845a12.0992,12.0992,0,0,1,1.05789-1.21555,7.39175,7.39175,0,0,1,1.28105-1.02819,6.35564,6.35564,0,0,1,1.55943-.7106,6.5832,6.5832,0,0,1,1.93072-.262,6.36075,6.36075,0,0,1,4.99416,1.96766,7.834,7.834,0,0,1,1.76316,5.42086V56.20456Z" fill="#fff"/>
            <path d="M130.62346,53.03011a5.28553,5.28553,0,0,1-1.6154,1.98631,7.2732,7.2732,0,0,1-2.43187,1.16948,11.03376,11.03376,0,0,1-2.98861.39,13.94,13.94,0,0,1-8.53934-3.00727l2.41283-3.71292a13.42528,13.42528,0,0,0,3.24909,1.7822,8.79294,8.79294,0,0,0,3.02593.59406,3.14308,3.14308,0,0,0,1.80048-.40861,1.26037,1.26037,0,0,0,.57579-1.07655V50.6725a1.06778,1.06778,0,0,0-.33435-.7799,2.80774,2.80774,0,0,0-.90938-.57541,13.41944,13.41944,0,0,0-1.31837-.46421q-.74259-.22278-1.559-.48249a21.02608,21.02608,0,0,1-2.09751-.72392,7.49371,7.49371,0,0,1-1.91244-1.11388A5.43989,5.43989,0,0,1,116.589,44.843a5.11587,5.11587,0,0,1-.53847-2.45053v-.07426a5.85371,5.85371,0,0,1,2.13484-4.67789,6.64352,6.64352,0,0,1,2.30239-1.22546,9.55565,9.55565,0,0,1,2.84009-.40823,12.77228,12.77228,0,0,1,3.8424.61235,14.23337,14.23337,0,0,1,3.58344,1.68966l-2.15387,3.89838a17.77912,17.77912,0,0,0-2.8957-1.35532,7.57913,7.57913,0,0,0-2.48746-.50114,2.58361,2.58361,0,0,0-1.55981.39,1.184,1.184,0,0,0-.51943.98364v.07425a.971.971,0,0,0,.33359.72431,3.72582,3.72582,0,0,0,.8911.59407,11.75582,11.75582,0,0,0,1.28106.53808q.72429.26047,1.54075.51981,1.03964.33417,2.11657.79856a8.72881,8.72881,0,0,1,1.93071,1.13216,5.61673,5.61673,0,0,1,1.41053,1.63368,4.60747,4.60747,0,0,1,.55751,2.33933v.07426A6.6263,6.6263,0,0,1,130.62346,53.03011Z" fill="#fff"/>
          </g>
        </g>
        <g>
          <path d="M11.31607,90.28273c0-2.87892.19859-6.9982.64526-11.21711A121.50517,121.50517,0,0,0,2.72981,98.075c-.34737.99263-1.09193,1.04211-1.78666.29789A4.65166,4.65166,0,0,1,0,95.59323a9.50012,9.50012,0,0,1,.64526-2.97788c2.58069-6.65083,8.88415-18.463,12.65606-24.717.64526-1.09192,1.241-1.09192,1.98525-.49614a4.40235,4.40235,0,0,1,2.18385,3.921,14.92555,14.92555,0,0,1-.24807,2.38209A144.45962,144.45962,0,0,0,15.73358,88.595a217.56041,217.56041,0,0,1,11.46484-20.895c.74456-1.04244,1.34-.79437,1.886.14878a4.26592,4.26592,0,0,1,.447,1.93577,10.12666,10.12666,0,0,1-1.83647,5.40979c-2.77963,4.56629-8.88416,16.22972-11.91185,22.93a1.09336,1.09336,0,0,1-1.68737.44667c-1.63788-.84351-2.43225-2.134-2.6305-4.66524C11.36589,92.46658,11.31607,91.474,11.31607,90.28273Z" fill="#fff"/>
          <path d="M38.91134,88.14837c-1.04245,4.11961-4.21892,8.98345-7.99083,10.274a5.55738,5.55738,0,0,1-1.787.29789A6.03759,6.03759,0,0,1,24.26968,96.189a7.01868,7.01868,0,0,1-1.38981-4.31821,14.88329,14.88329,0,0,1,2.08455-6.94838c2.23366-3.97051,5.36031-6.45224,8.63608-6.45224a3.68763,3.68763,0,0,1,3.27577,1.83648c1.38981,1.63788,2.77928,1.98525,2.33262,6.20382,1.29051,0,1.38981.44667.99262.94315A2.07431,2.07431,0,0,1,38.91134,88.14837ZM27.94229,96.189c1.29052,0,3.27577-1.83648,5.11225-5.21154a16.9708,16.9708,0,0,0,1.63788-3.57366,6.29429,6.29429,0,0,1-3.02769-4.02A15.946,15.946,0,0,0,28.836,87.10626a16.5105,16.5105,0,0,0-2.08454,6.9982C26.75142,95.59323,27.19808,96.189,27.94229,96.189ZM36.18153,82.54c0-.74456-.39719-1.0421-.74455-1.0421-.29789,0-.74456.39684-.74456,1.19087a4.96393,4.96393,0,0,0,.794,2.82911A8.30076,8.30076,0,0,0,36.18153,82.54Z" fill="#fff"/>
          <path d="M52.21095,90.382c1.43929-4.41751,5.41014-11.76308,8.78486-16.9248a3.68458,3.68458,0,0,1-2.97788-2.18384c-.24807-.74456-.14877-1.1414.89333-1.29052A16.16017,16.16017,0,0,0,63.527,68.4941a18.49172,18.49172,0,0,1,4.51681-1.43929c3.37506-.546,5.807,1.04211,7.84171,4.41717a10.46533,10.46533,0,0,1,1.14174,4.96313c0,7.99082-7.89153,18.26479-18.81075,21.93774a4.98828,4.98828,0,0,1-1.63789.29755c-1.58806,0-2.53121-.84351-3.77191-2.43191-.89367-1.19122-1.29051-1.886-1.29051-2.68A10.85205,10.85205,0,0,1,52.21095,90.382ZM64.86736,72.91127a9.00773,9.00773,0,0,1-1.38982,5.11224c-3.8712,6.50172-6.75012,11.66344-7.79223,15.28658a5.03672,5.03672,0,0,0-.24807,1.43963c0,.44666.24807.546.74422.34737C67.1505,90.928,73.255,80.55473,73.255,74.64845a5.18451,5.18451,0,0,0-.59544-2.72981,2.18974,2.18974,0,0,0-1.83648-1.09192C69.28452,70.82672,66.40594,72.36531,64.86736,72.91127Z" fill="#fff"/>
          <path d="M83.67674,91.22554a6.37993,6.37993,0,0,1-3.52418-1.09192,10.51638,10.51638,0,0,0-.44666,2.9284c0,2.18384.89333,3.72243,2.38244,3.72243,3.77225,0,7.09749-3.67261,9.13222-6.75013.546-.794,1.19122-.89333,1.58841.0993a4.27644,4.27644,0,0,1-.69474,3.22629,12.92742,12.92742,0,0,1-9.9266,5.40979c-4.61576.04982-7.147-2.97788-7.147-6.94838a12.33638,12.33638,0,0,1,1.53859-5.70768c2.58069-5.261,6.601-7.89153,9.47959-7.89153A3.21923,3.21923,0,0,1,87.796,78.619,9.04489,9.04489,0,0,1,90.87319,81.2a3.61118,3.61118,0,0,1,.49649,1.83647C91.36968,86.01434,88.04409,91.22554,83.67674,91.22554Zm-2.8291-2.97788a2.00617,2.00617,0,0,0,1.09192.34737c1.19122,0,2.77929-1.48877,3.77191-2.82876,1.43929-1.93578,2.48174-4.26839,1.93578-4.7154C86.90269,80.45543,83.23008,83.48313,80.84764,88.24766Z" fill="#fff"/>
          <path d="M106.95312,90.928a16.99936,16.99936,0,0,1-4.41717,6.25364c3.67261-.74455,6.50172-4.02032,7.941-6.8989.59578-1.14174,1.63788-.89333,1.83647.0993a5.27439,5.27439,0,0,1-.69473,3.37472c-2.23367,4.02032-6.40276,5.41014-10.522,5.41014-3.921,0-6.35294-1.34-7.49468-4.02033-2.18385,4.0698-4.31787,8.3382-6.40242,13.20237-.39719.89333-.99263,1.09192-1.48911.49614a3.84666,3.84666,0,0,1-.99263-2.68,10.64067,10.64067,0,0,1,.59578-3.22628c1.43929-4.71506,9.62837-20.15075,12.70589-24.27.89332-1.09192,1.53858-.89333,1.93543-.34737a3.02287,3.02287,0,0,1,.49648,1.83614,7.56659,7.56659,0,0,1,4.02-1.48877c2.97822,0,4.41751,2.68,4.41751,5.2112A17.3428,17.3428,0,0,1,106.95312,90.928ZM96.977,88.99222c-1.53859,3.17647-1.19122,6.75012.0993,6.75012,1.53858,0,3.77191-2.7298,5.807-6.84942A15.70816,15.70816,0,0,0,104.67,82.3912c0-.89332-.0993-1.4891-.34737-1.5884-.89333-.39685-3.62314,1.88595-5.75716,5.50943Z" fill="#fff"/>
          <path d="M126.30915,88.14837c-1.04245,4.11961-4.21892,8.98345-7.99083,10.274a5.55738,5.55738,0,0,1-1.787.29789,6.03759,6.03759,0,0,1-4.86383-2.53121,7.01868,7.01868,0,0,1-1.38981-4.31821,14.88329,14.88329,0,0,1,2.08455-6.94838c2.23366-3.97051,5.36031-6.45224,8.63608-6.45224a3.68763,3.68763,0,0,1,3.27577,1.83648c1.38981,1.63788,2.77928,1.98525,2.33262,6.20382,1.29051,0,1.38981.44667.99262.94315A2.07431,2.07431,0,0,1,126.30915,88.14837ZM115.3401,96.189c1.29052,0,3.27577-1.83648,5.11225-5.21154a16.9708,16.9708,0,0,0,1.63788-3.57366,6.29429,6.29429,0,0,1-3.02769-4.02,15.946,15.946,0,0,0-2.82876,3.72243,16.51039,16.51039,0,0,0-2.08455,6.9982C114.14923,95.59323,114.59589,96.189,115.3401,96.189Zm8.23924-13.649c0-.74456-.39718-1.0421-.74455-1.0421-.29789,0-.74456.39684-.74456,1.19087a4.96386,4.96386,0,0,0,.794,2.82911A8.30092,8.30092,0,0,0,123.57934,82.54Z" fill="#fff"/>
          <path d="M128.29372,87.801c.99262-.84385,1.73684-.59544,1.88595.59578,1.63789-2.333,3.37507-4.91365,4.66524-7.048a5.32893,5.32893,0,0,1,1.93577-3.87121,3.85683,3.85683,0,0,1,2.43192-1.04244c1.34,0,1.63788,1.09192.0993,3.62313-.04948.59578-.0993,1.43964-.0993,2.08455,0,3.52418.64526,6.75013.546,9.43046a9.488,9.488,0,0,1-.84385,3.72243,10.76234,10.76234,0,0,0,4.31821-5.45961c.44667-1.14174,1.19122-.79438,1.53859,0a4.00692,4.00692,0,0,1-.49648,3.42454,10.62029,10.62029,0,0,1-9.08241,5.50909c-2.97822.0993-5.9561-.69474-7.64346-3.82173a6.70278,6.70278,0,0,1-.84385-3.27577A5.02161,5.02161,0,0,1,128.29372,87.801Zm6.70031,2.9284c0-1.58841-.04982-3.17647-.14912-4.51647-1.19122,1.886-2.58069,4.02-4.0698,6.15435.59578,2.33262,1.63788,4.0698,2.72981,4.0698C134.54736,96.43708,134.994,93.95535,134.994,90.7294Z" fill="#fff"/>
          <path d="M146.20978,98.72022c-3.02736,0-4.36769-1.73718-4.36769-4.21891a11.21186,11.21186,0,0,1,.59578-3.27577,63.16774,63.16774,0,0,1,6.25364-11.81221c.74455-.993,1.34-1.09193,1.98525-.34771.94315.99262,1.34,3.127.04982,5.60873-.94315,2.134-3.22629,5.85645-4.07014,7.8417a8.72193,8.72193,0,0,0-.69474,2.97788c0,.79438.1986,1.241.74456,1.241,1.98525,0,4.56594-3.32559,6.10487-6.70065.39684-.89333,1.0421-.794,1.48877.0993a3.76847,3.76847,0,0,1-.24807,3.37506A9.31371,9.31371,0,0,1,146.20978,98.72022Zm6.35294-25.31247c1.38981,0,2.7298,1.78666,2.7298,3.226,0,1.34-.74455,2.48174-1.98525,2.48174a3.08929,3.08929,0,0,1-2.9284-3.0277A2.58047,2.58047,0,0,1,152.56272,73.40775Z" fill="#fff"/>
          <path d="M153.30659,89.04169a103.70858,103.70858,0,0,1,4.86383-9.92625,3.8619,3.8619,0,0,1-2.82876-1.34c-.69508-1.04244-.19859-1.53858.94281-1.48911a28.40918,28.40918,0,0,0,3.57365-.09929c1.53859-2.68,2.58069-4.31787,3.72243-5.95576.74456-1.09192,1.34-1.04244,1.886-.09929a4.468,4.468,0,0,1,.546,2.03473,8.74151,8.74151,0,0,1-.794,3.42488,3.58191,3.58191,0,0,1,2.7298,1.58806c.49615.89333.14878,1.48911-1.04244,1.34a14.99994,14.99994,0,0,0-3.27577.14911c-1.886,3.226-4.71506,8.1396-6.45224,11.91151a9.4235,9.4235,0,0,0-.89332,3.72243c0,1.48911.49648,2.53156,1.34,2.53156,1.93577,0,4.5168-3.127,6.25364-6.84943.546-1.19122,1.68771-1.29051,2.03507.04948a3.9688,3.9688,0,0,1-.49614,2.9284c-.69508,1.48911-4.02032,5.7575-8.18942,5.7575-2.63051,0-4.91365-2.13437-4.91365-5.55891A10.87317,10.87317,0,0,1,153.30659,89.04169Z" fill="#fff"/>
        </g>
      </g>
    </g>
  </g>
</svg>
