<svg xmlns="http://www.w3.org/2000/svg" viewBox="0 0 502.92241 403.15234">
  <g id="Layer_2" data-name="Layer 2">
    <g id="Layer_1-2" data-name="Layer 1">
      <g>
        <text transform="translate(214.50323 388.58984) scale(0.95843 1)" font-size="58.25027" fill="#fffdfd" font-family="Poppins-ExtraBold, Poppins ExtraBold" font-weight="800" letter-spacing="0.04em">On</text>
        <g>
          <g>
            <path d="M69.30607.7767H80.96573V79.0586H64.08781V18.09878L50.54106,21.43,46.98781,7.439Z" fill="#fff"/>
            <path d="M163.74271,55.96249a39.54525,39.54525,0,0,1-7.05069,12.77A32.86368,32.86368,0,0,1,145.75554,77.282a31.93056,31.93056,0,0,1-14.15718,3.10909A32.3962,32.3962,0,0,1,117.44,77.33778,31.6547,31.6547,0,0,1,106.55936,68.843a39.405,39.405,0,0,1-6.94022-12.7131,49.37532,49.37532,0,0,1-2.44286-15.82334,49.05034,49.05034,0,0,1,2.49866-15.82334,39.4435,39.4435,0,0,1,7.05069-12.82471,32.85874,32.85874,0,0,1,10.93648-8.54943A31.918,31.918,0,0,1,131.82044,0a32.40885,32.40885,0,0,1,14.15718,3.05329,31.73491,31.73491,0,0,1,10.88181,8.49476A39.348,39.348,0,0,1,163.79851,24.317a49.59508,49.59508,0,0,1,2.44286,15.76753A48.88258,48.88258,0,0,1,163.74271,55.96249ZM147.47636,30.42467a26.50636,26.50636,0,0,0-3.44278-7.88433,16.83354,16.83354,0,0,0-5.38453-5.21826,14.18869,14.18869,0,0,0-14.04672-.05581,16.64412,16.64412,0,0,0-5.32987,5.10779,24.7904,24.7904,0,0,0-3.387,7.82854,39.78811,39.78811,0,0,0-1.16505,9.88189,37.98407,37.98407,0,0,0,1.22086,9.8819,26.43515,26.43515,0,0,0,3.44277,7.88434,16.787,16.787,0,0,0,5.38454,5.21826,14.18865,14.18865,0,0,0,14.04671.0558,16.47577,16.47577,0,0,0,5.32987-5.1636,25.603,25.603,0,0,0,3.387-7.82739,39.12949,39.12949,0,0,0,1.16506-9.82723A38.09484,38.09484,0,0,0,147.47636,30.42467Z" fill="#fff"/>
            <path d="M231.97415,16.76631V33.53376H269.06V48.96761H231.97415v30.091h-17.1V1.33247h59.18319V16.76631Z" fill="#fff"/>
            <path d="M320.91465,36.08709q-8.439,0-13.26887,5.10779-4.83105,5.1078-4.82991,15.878V79.0586H285.938V19.54286h16.87792v11.9922a24.75367,24.75367,0,0,1,6.99488-9.77143q4.43985-3.66427,11.99221-3.33116V36.08709Z" fill="#fff"/>
            <path d="M387.81476,53.07548q-.05808.89-.16741,2.11031h-41.417a14.2142,14.2142,0,0,0,5.052,8.7157,15.12388,15.12388,0,0,0,9.49468,2.94282,18.82056,18.82056,0,0,0,7.55065-1.44294,25.69674,25.69674,0,0,0,6.88328-4.66363l9.661,8.54943a29.943,29.943,0,0,1-10.21558,8.16108A31.67828,31.67828,0,0,1,360.555,80.39106a33.93222,33.93222,0,0,1-12.38169-2.22078,28.64009,28.64009,0,0,1-9.8819-6.32865,29.27275,29.27275,0,0,1-6.49606-9.71676,32.22559,32.22559,0,0,1-2.33125-12.491v-.22208a33.30134,33.30134,0,0,1,2.165-11.9922,30.49453,30.49453,0,0,1,6.05191-9.8819,28.22347,28.22347,0,0,1,21.20787-9.10519,28.99434,28.99434,0,0,1,12.88052,2.66493,26.21265,26.21265,0,0,1,9.04939,7.16116,29.80766,29.80766,0,0,1,5.32987,10.32719,42.73124,42.73124,0,0,1,1.72082,12.15848v.22208Q387.86943,52.18944,387.81476,53.07548ZM367.4394,35.47666a11.06572,11.06572,0,0,0-8.55057-3.49744,11.3333,11.3333,0,0,0-8.60523,3.44164,17.26817,17.26817,0,0,0-4.27529,9.21566h25.42735A16.43847,16.43847,0,0,0,367.4394,35.47666Z" fill="#fff"/>
            <path d="M455.87993,53.07548q-.05808.89-.16741,2.11031h-41.417a14.2142,14.2142,0,0,0,5.052,8.7157,15.12388,15.12388,0,0,0,9.49468,2.94282,18.82056,18.82056,0,0,0,7.55065-1.44294,25.69674,25.69674,0,0,0,6.88328-4.66363l9.661,8.54943a29.943,29.943,0,0,1-10.21558,8.16108,31.67828,31.67828,0,0,1-14.10138,2.94281,33.93222,33.93222,0,0,1-12.38169-2.22078,28.64009,28.64009,0,0,1-9.8819-6.32865,29.27275,29.27275,0,0,1-6.49606-9.71676,32.22559,32.22559,0,0,1-2.33125-12.491v-.22208a33.30134,33.30134,0,0,1,2.165-11.9922,30.49453,30.49453,0,0,1,6.05191-9.8819A28.22347,28.22347,0,0,1,426.954,18.43247a28.99434,28.99434,0,0,1,12.88052,2.66493,26.21265,26.21265,0,0,1,9.04939,7.16116,29.80766,29.80766,0,0,1,5.32987,10.32719,42.73124,42.73124,0,0,1,1.72082,12.15848v.22208Q455.9346,52.18944,455.87993,53.07548ZM435.50457,35.47666a11.06572,11.06572,0,0,0-8.55057-3.49744,11.3333,11.3333,0,0,0-8.60523,3.44164,17.2681,17.2681,0,0,0-4.27529,9.21566h25.42735A16.43847,16.43847,0,0,0,435.50457,35.47666Z" fill="#fff"/>
          </g>
          <g>
            <path d="M155.874,155.37173a21.08558,21.08558,0,0,1-5.84691,7.55065,26.30482,26.30482,0,0,1-8.95258,4.66363,38.89177,38.89177,0,0,1-11.52983,1.61035,51.48859,51.48859,0,0,1-17.43369-3.05328A46.12055,46.12055,0,0,1,96.56557,156.76l10.10511-12.10268a50.71782,50.71782,0,0,0,10.93648,6.88442,29.23276,29.23276,0,0,0,12.27009,2.55333q5.32987,0,8.27269-1.9429a6.11818,6.11818,0,0,0,2.94168-5.38567v-.22208a6.73346,6.73346,0,0,0-.61157-2.94168,6.20955,6.20955,0,0,0-2.33922-2.38819,24.64206,24.64206,0,0,0-4.78663-2.22078q-3.063-1.10868-7.9595-2.33125a96.65646,96.65646,0,0,1-10.68935-3.2207,30.07411,30.07411,0,0,1-8.12692-4.38575,17.71962,17.71962,0,0,1-5.17726-6.49493,22.5574,22.5574,0,0,1-1.837-9.661v-.22207a22.52675,22.52675,0,0,1,1.985-9.60516,21.86485,21.86485,0,0,1,5.57017-7.38323,25.05143,25.05143,0,0,1,8.56424-4.77525,34.41366,34.41366,0,0,1,10.97406-1.665,46.51511,46.51511,0,0,1,15.71173,2.55332,45.60377,45.60377,0,0,1,13.15726,7.32857l-8.88311,12.88052a56.55627,56.55627,0,0,0-10.21445-5.60775,26.11585,26.11585,0,0,0-9.9935-2.05337q-4.99676,0-7.496,1.9429a5.904,5.904,0,0,0-2.49752,4.82991v.22208a6.98294,6.98294,0,0,0,.72318,3.27536,6.54116,6.54116,0,0,0,2.616,2.49866,24.60824,24.60824,0,0,0,5.17726,2.11031q3.285.99936,8.29547,2.33125a80.00265,80.00265,0,0,1,10.52079,3.49744,29.431,29.431,0,0,1,7.79323,4.66364,17.80209,17.80209,0,0,1,4.78663,6.38446,21.68629,21.68629,0,0,1,1.61491,8.77264v.22208A24.05818,24.05818,0,0,1,155.874,155.37173Z" fill="#fff"/>
            <path d="M231.30991,151.5964a30.1145,30.1145,0,0,1-5.9961,9.661,24.463,24.463,0,0,1-8.60523,5.9403,26.72885,26.72885,0,0,1-10.21559,1.9987,21.33012,21.33012,0,0,1-11.1597-2.64443,29.69055,29.69055,0,0,1-7.38323-6.16921v25.46949H171.07214v-77.282h16.87792v8.47541a26.67306,26.67306,0,0,1,7.49484-6.88669,20.75175,20.75175,0,0,1,11.04809-2.69911,26.45072,26.45072,0,0,1,10.104,1.99871,25.00977,25.00977,0,0,1,8.661,5.9403,29.63984,29.63984,0,0,1,6.0519,9.65981,35.43284,35.43284,0,0,1,2.27659,13.15841v.22207A35.414,35.414,0,0,1,231.30991,151.5964Zm-14.60133-13.37933a18.90837,18.90837,0,0,0-1.1662-6.76256,16.12876,16.12876,0,0,0-3.16489-5.25357,13.98174,13.98174,0,0,0-4.60783-3.35394,13.5903,13.5903,0,0,0-15.76754,3.35394,16.6912,16.6912,0,0,0-3.10909,5.25357,18.93328,18.93328,0,0,0-1.16505,6.76256v.22207A18.95038,18.95038,0,0,0,188.893,145.204a16.71672,16.71672,0,0,0,3.10909,5.25356,13.77015,13.77015,0,0,0,15.76754,3.35281,13.99449,13.99449,0,0,0,4.60783-3.35281,16.26633,16.26633,0,0,0,3.16489-5.1989,18.79332,18.79332,0,0,0,1.1662-6.8195Z" fill="#fff"/>
            <path d="M246.35427,102.01837V87.02868H264.1205v14.98969Zm.44415,66.0676V108.57023h16.87792V168.086Z" fill="#fff"/>
            <path d="M317.19484,168.086V134.96676q0-5.979-2.66493-9.02662a9.50191,9.50191,0,0,0-7.55065-3.04645,10.02351,10.02351,0,0,0-7.71692,3.04645q-2.83236,3.04589-2.83121,9.02662V168.086H279.55321V108.57023h16.87792v8.50844a36.18612,36.18612,0,0,1,3.16375-3.63525,22.105,22.105,0,0,1,3.83113-3.07492,19.00694,19.00694,0,0,1,4.66364-2.12512,19.68751,19.68751,0,0,1,5.774-.78354q9.66039,0,14.9356,5.8845,5.27178,5.88676,5.27292,16.21169V168.086Z" fill="#fff"/>
            <path d="M390.644,158.59243a15.80665,15.80665,0,0,1-4.83105,5.9403,21.75093,21.75093,0,0,1-7.27277,3.49744,32.99724,32.99724,0,0,1-8.93778,1.16619,41.68915,41.68915,0,0,1-25.53782-8.99358l7.21582-11.1039a40.1494,40.1494,0,0,0,9.71677,5.32987,26.29587,26.29587,0,0,0,9.04939,1.77663q3.666,0,5.38453-1.222a3.76932,3.76932,0,0,0,1.722-3.21956v-.22208a3.19332,3.19332,0,0,0-.99992-2.33239,8.39737,8.39737,0,0,0-2.7196-1.72082,40.12657,40.12657,0,0,0-3.94274-1.38827q-2.22078-.66622-4.66249-1.44294a62.876,62.876,0,0,1-6.27285-2.165,22.41109,22.41109,0,0,1-5.71936-3.33117,16.2678,16.2678,0,0,1-4.16368-5.05313,15.29966,15.29966,0,0,1-1.61035-7.32857v-.22207a17.50627,17.50627,0,0,1,6.38446-13.98977,19.86856,19.86856,0,0,1,6.88555-3.66486,28.57729,28.57729,0,0,1,8.49363-1.22086,38.19678,38.19678,0,0,1,11.49111,1.83129,42.56655,42.56655,0,0,1,10.71668,5.05313l-6.4414,11.65852a53.169,53.169,0,0,0-8.6599-4.05321,22.66624,22.66624,0,0,0-7.439-1.49874,7.72664,7.72664,0,0,0-4.66477,1.16619,3.541,3.541,0,0,0-1.55341,2.94168v.22208a2.90375,2.90375,0,0,0,.99764,2.16611,11.14212,11.14212,0,0,0,2.66494,1.77663,35.15069,35.15069,0,0,0,3.83112,1.60921q2.16612.779,4.60781,1.55454,3.10913.99936,6.32982,2.38819a26.105,26.105,0,0,1,5.774,3.38584,16.79782,16.79782,0,0,1,4.21834,4.88571,13.779,13.779,0,0,1,1.6673,6.996v.22207A19.81675,19.81675,0,0,1,390.644,158.59243Z" fill="#fff"/>
          </g>
        </g>
        <g>
          <path d="M33.842,270.00054c0-8.60973.59392-20.92889,1.92972-33.546-10.53843,18.10932-21.07686,38.59226-27.60789,56.84956-1.03884,2.96855-3.26552,3.11652-5.3432.89087A13.91151,13.91151,0,0,1,0,285.88217a28.41115,28.41115,0,0,1,1.92972-8.90567c7.71784-19.89,26.569-55.21578,37.84936-73.919,1.92971-3.26552,3.71146-3.26552,5.93711-1.48377,4.45335,3.26552,6.531,6.382,6.531,11.72626a44.63418,44.63418,0,0,1-.74188,7.12393c-2.07768,12.02322-3.41348,27.45992-4.45233,44.52938,10.09249-21.22483,24.49035-47.201,34.28689-62.4887,2.22668-3.11754,4.0074-2.37566,5.64016.44493a12.75793,12.75793,0,0,1,1.33682,5.78915c0,3.56145-.89087,8.75668-5.49219,16.17858-8.31277,13.656-26.56905,48.53679-35.62371,68.57481-.89087,1.78174-2.52363,2.67262-5.04624,1.3358-4.89827-2.52262-7.27393-6.382-7.86683-13.95192C33.991,276.53157,33.842,273.563,33.842,270.00054Z" fill="#fffdfd"/>
          <path d="M116.36868,263.61748c-3.11755,12.32018-12.61714,26.866-23.89745,30.72544a16.62049,16.62049,0,0,1-5.34422.89087,18.05605,18.05605,0,0,1-14.54583-7.56987,20.99015,20.99015,0,0,1-4.15639-12.91409c0-6.531,2.37464-13.80395,6.23407-20.77991,6.68-11.87423,16.03062-19.29613,25.82717-19.29613,4.30436,0,6.976,1.63276,9.79654,5.49219,4.15639,4.89827,8.31176,5.93711,6.976,18.55323,3.85943,0,4.15639,1.3358,2.96856,2.82059A6.20344,6.20344,0,0,1,116.36868,263.61748ZM83.56454,287.66392c3.85943,0,9.79654-5.49219,15.28873-15.58569a50.75262,50.75262,0,0,0,4.89827-10.68742c-4.74928-2.96856-7.86683-6.827-9.05466-12.0222A47.689,47.689,0,0,0,86.23716,260.501c-3.85943,7.125-6.23408,15.43671-6.23408,20.9289C80.00308,285.88217,81.33888,287.66392,83.56454,287.66392ZM108.20489,246.845c0-2.22668-1.18783-3.11653-2.22667-3.11653-.89088,0-2.22668,1.18681-2.22668,3.56145,0,2.67262.74189,6.531,2.37465,8.46075A24.82487,24.82487,0,0,0,108.20489,246.845Z" fill="#fffdfd"/>
          <path d="M156.14265,270.2975c4.30436-13.211,16.17961-35.17878,26.2721-50.61549a11.01914,11.01914,0,0,1-8.90568-6.531c-.74188-2.22667-.44492-3.41348,2.6716-3.85943,4.75031-.59289,9.20263-2.37464,13.804-4.45232a55.30025,55.30025,0,0,1,13.508-4.30436c10.0935-1.63276,17.36641,3.11653,23.4515,13.21,2.22667,3.71044,3.4145,9.64756,3.4145,14.84279,0,23.89745-23.60049,54.62288-56.25564,65.60726a14.91838,14.91838,0,0,1-4.89827.88985c-4.74929,0-7.56988-2.52261-11.28032-7.27291-2.67262-3.56248-3.85943-5.64016-3.85943-8.0148C154.065,277.27346,154.80685,274.45287,156.14265,270.2975ZM193.993,218.04926c.44492,3.71146-.74291,9.20263-4.15639,15.28873-11.57727,19.4441-20.187,34.88081-23.30353,45.71619a15.06264,15.06264,0,0,0-.74189,4.30538c0,1.3358.74189,1.63276,2.22565,1.03884,32.80415-12.46814,51.06042-43.49054,51.06042-61.15391,0-3.56248-.59392-6.23408-1.78073-8.16379a6.54864,6.54864,0,0,0-5.49219-3.26552C207.20307,211.81518,198.59435,216.4165,193.993,218.04926Z" fill="#fffdfd"/>
          <path d="M250.2446,272.82011a19.07973,19.07973,0,0,1-10.53945-3.26551,31.44961,31.44961,0,0,0-1.3358,8.7577c0,6.531,2.6716,11.13235,7.125,11.13235,11.28133,0,21.22585-10.98336,27.31093-20.187,1.63276-2.37464,3.56247-2.6716,4.7503.297.44493,1.3358.59392,5.64117-2.07768,9.64857-6.23407,9.05364-18.10932,16.03062-29.6866,16.17859-13.80394.149-21.37381-8.90567-21.37381-20.7799a36.89347,36.89347,0,0,1,4.60131-17.06946c7.71784-15.73366,19.74106-23.60049,28.34978-23.60049a9.62749,9.62749,0,0,1,5.19523,1.18681c4.15639,2.37566,7.12494,4.7503,9.20263,7.71886a10.79978,10.79978,0,0,1,1.48479,5.49219C273.25118,257.23544,263.30564,272.82011,250.2446,272.82011Zm-8.46075-8.90567a5.99963,5.99963,0,0,0,3.26552,1.03884c3.56247,0,8.31176-4.45233,11.28031-8.45972,4.30436-5.78915,7.42191-12.76511,5.78915-14.10193C259.89216,240.61091,248.9088,249.66557,241.78385,263.91444Z" fill="#fffdfd"/>
          <path d="M319.85518,271.93026c-3.56247,8.16379-8.46074,14.84279-13.21,18.70222,10.98336-2.22668,19.4441-12.02322,23.74846-20.63194,1.78175-3.4145,4.89827-2.6716,5.49219.297A15.77373,15.77373,0,0,1,333.80812,280.39c-6.68,12.02322-19.14817,16.17961-31.46733,16.17961-11.72626,0-18.99917-4.0074-22.41368-12.02322-6.531,12.17119-12.91307,24.93629-19.14714,39.48314-1.18783,2.6716-2.96856,3.26552-4.45335,1.48377a11.504,11.504,0,0,1-2.96855-8.0148,31.82162,31.82162,0,0,1,1.78174-9.64857c4.30436-14.10091,28.7947-60.26305,37.99835-72.5822,2.6716-3.26552,4.60132-2.6716,5.78813-1.03885a9.04025,9.04025,0,0,1,1.48479,5.49117c3.71044-2.52261,8.0148-4.45232,12.0222-4.45232,8.90669,0,13.21105,8.0148,13.21105,15.58467C325.64433,257.23544,323.26969,264.80531,319.85518,271.93026Zm-29.83456-5.78915c-4.60132,9.49959-3.56248,20.187.297,20.187,4.60131,0,11.28031-8.16379,17.36641-20.484,3.56248-6.976,5.3432-14.54583,5.3432-19.4441,0-2.6716-.297-4.45334-1.03884-4.7503-2.6716-1.18681-10.83539,5.64015-17.21743,16.47656Z" fill="#fffdfd"/>
          <path d="M377.74154,263.61748c-3.11754,12.32018-12.61713,26.866-23.89745,30.72544a16.62044,16.62044,0,0,1-5.34422.89087,18.05605,18.05605,0,0,1-14.54583-7.56987,20.99014,20.99014,0,0,1-4.15638-12.91409c0-6.531,2.37464-13.80395,6.23407-20.77991,6.68-11.87423,16.03062-19.29613,25.82716-19.29613,4.30436,0,6.976,1.63276,9.79655,5.49219,4.15639,4.89827,8.31176,5.93711,6.976,18.55323,3.85943,0,4.15638,1.3358,2.96855,2.82059A6.20344,6.20344,0,0,1,377.74154,263.61748ZM344.9374,287.66392c3.85943,0,9.79655-5.49219,15.28873-15.58569a50.7527,50.7527,0,0,0,4.89828-10.68742c-4.74929-2.96856-7.86683-6.827-9.05466-12.0222A47.68872,47.68872,0,0,0,347.61,260.501c-3.85943,7.125-6.23407,15.43671-6.23407,20.9289C341.376,285.88217,342.71175,287.66392,344.9374,287.66392ZM369.57775,246.845c0-2.22668-1.18783-3.11653-2.22667-3.11653-.89087,0-2.22667,1.18681-2.22667,3.56145,0,2.67262.74188,6.531,2.37464,8.46075A24.82465,24.82465,0,0,0,369.57775,246.845Z" fill="#fffdfd"/>
          <path d="M383.67662,262.57864c2.96855-2.52363,5.19421-1.78073,5.64015,1.78175,4.89828-6.977,10.09351-14.69482,13.95192-21.07788.59391-5.3432,2.37566-8.75771,5.78914-11.57728a11.53415,11.53415,0,0,1,7.27292-3.11754c4.0074,0,4.89827,3.26551.297,10.83538-.148,1.78175-.297,4.30538-.297,6.23408,0,10.53945,1.92971,20.187,1.63276,28.20282a28.37481,28.37481,0,0,1-2.52363,11.13235A32.186,32.186,0,0,0,428.354,268.66474c1.3358-3.4145,3.56247-2.37566,4.60131,0,.74189,1.48377,1.18783,5.64016-1.48479,10.24148-5.64015,10.39046-16.03061,16.03061-27.16194,16.47554-8.90669.297-17.81237-2.07768-22.85861-11.4293a20.04539,20.04539,0,0,1-2.52363-9.79655C378.92631,269.70359,380.4111,265.39923,383.67662,262.57864Zm20.038,8.7577c0-4.7503-.149-9.49959-.44594-13.507-3.56248,5.64015-7.71784,12.02219-12.17119,18.40526,1.78175,6.976,4.89827,12.17118,8.16379,12.17118C402.37883,288.4058,403.71463,280.9839,403.71463,271.33634Z" fill="#fffdfd"/>
          <path d="M437.25658,295.23379c-9.05364,0-13.06206-5.19523-13.06206-12.61713a33.53076,33.53076,0,0,1,1.78174-9.79655c3.71045-10.38944,13.21-27.60789,18.70222-35.32573,2.22668-2.96958,4.0074-3.26552,5.93712-1.03986,2.82059,2.96855,4.0074,9.35162.149,16.77352-2.82059,6.382-9.64858,17.51439-12.17221,23.4515a26.08335,26.08335,0,0,0-2.07769,8.90567c0,2.37567.59392,3.71147,2.22668,3.71147,5.93711,0,13.65495-9.94554,18.25729-20.039,1.18681-2.6716,3.11653-2.37464,4.45233.297,1.3358,2.52363,1.18783,6.23407-.74189,10.0935C456.25576,288.99972,446.01428,295.23379,437.25658,295.23379Zm18.99918-75.69974c4.15638,0,8.16378,5.34319,8.16378,9.64755,0,4.0074-2.22667,7.42191-5.93711,7.42191-4.74929,0-8.75771-4.45335-8.75771-9.05467C449.72472,223.39246,452.84227,219.53405,456.25576,219.53405Z" fill="#fffdfd"/>
          <path d="M458.48039,266.28908a310.152,310.152,0,0,1,14.54583-29.68557c-4.60132-.59392-7.27292-2.22668-8.45973-4.0074-2.0787-3.11755-.59391-4.60132,2.81957-4.45335a84.958,84.958,0,0,0,10.68742-.297c4.60131-8.0148,7.71784-12.91307,11.13234-17.81134,2.22668-3.26552,4.0074-3.11755,5.64016-.297a13.3622,13.3622,0,0,1,1.63276,6.08508,26.14274,26.14274,0,0,1-2.37464,10.2425c4.60131.59289,7.12392,2.96855,8.16379,4.74928,1.48376,2.6716.44492,4.45335-3.11755,4.0074a44.85832,44.85832,0,0,0-9.79655.44595c-5.64015,9.64755-14.1009,24.34237-19.29613,35.62269a28.18153,28.18153,0,0,0-2.6716,11.13234c0,4.45335,1.48479,7.57089,4.0074,7.57089,5.78915,0,13.508-9.35161,18.70222-20.484,1.63276-3.56247,5.04726-3.85943,6.0861.148.74189,3.11754.149,5.34422-1.48377,8.7577-2.0787,4.45335-12.02322,17.21845-24.49136,17.21845-7.86683,0-14.69482-6.38306-14.69482-16.62453A32.51738,32.51738,0,0,1,458.48039,266.28908Z" fill="#fffdfd"/>
        </g>
      </g>
    </g>
  </g>
</svg>
